<?xml version="1.0" encoding="UTF-8"?>
<svg width="151px" height="140px" viewBox="0 0 151 140" version="1.1" xmlns="http://www.w3.org/2000/svg" xmlns:xlink="http://www.w3.org/1999/xlink">
    <!-- Generator: sketchtool 50.2 (55047) - http://www.bohemiancoding.com/sketch -->
    <title>0CDF0C8A-0EE0-4928-A2DF-C0141B7D4A67@2x</title>
    <desc>Created with sketchtool.</desc>
    <defs></defs>
    <g id="Page-1" stroke="none" stroke-width="1" fill="none" fill-rule="evenodd">
        <g id="Desktop-HD-Copy-13" transform="translate(-946.000000, -890.000000)">
            <g id="BS-01-01" transform="translate(946.000000, 890.000000)">
                <path d="M42.885,43.882 C43.837,41.935 47.154,40.404 49.234,40.428 C49.948,40.436 55.985,41.168 55.027,39.05 C54.371,37.6 49.306,38.494 48.262,39.019 C46.614,39.848 44.164,41.081 43.161,42.641 C42.874,43.087 42.719,43.638 42.61,44.157" id="Shape" fill="#FF7455" fill-rule="nonzero"></path>
                <path d="M79.005,35.748 C77.908,35.952 76.875,35.108 75.837,34.918 C74.778,34.723 73.457,34.499 72.387,34.5 C70.043,34.503 68.01,35.573 66.011,36.679 C65.097,37.185 63.914,37.905 65.493,38.508 C66.535,38.906 67.905,38.009 68.795,37.644 C70.997,36.739 72.922,36.14 75.282,36.024 C76.842,35.948 78.322,36.478 79.831,36.3" id="Shape" fill="#FF7455" fill-rule="nonzero"></path>
                <path d="M72.131,21.817 C69.505,22.836 66.596,21.954 63.889,21.842 C62.201,21.772 60.425,21.524 58.745,21.787 C56.831,22.087 54.999,22.865 53.11,23.27 C49.855,23.969 46.874,25.357 43.744,26.398 C42.681,26.751 40.79,26.556 40.193,27.629 C39.714,28.49 40.224,29.609 40.394,30.42 C40.813,32.417 41.062,34.483 41.062,36.566 C41.062,39.108 40.371,40.48 39.274,42.722 C38.958,43.367 38.123,45.748 37.063,45.38 C36.517,45.19 35.541,41.914 35.244,41.288 C33.967,38.593 33.174,35.142 32.785,32.211 C32.583,30.684 32.571,28.936 32.813,27.408 C33.127,25.425 34.122,23.837 34.219,21.769 C34.284,20.377 33.947,18.676 34.238,17.328 C34.547,15.901 36.164,14.145 37.032,12.907 C39.434,9.481 42.813,6.839 46.425,4.83 C49.504,3.117 51.945,1.401 55.589,1.229 C62.82,0.888 71.291,-1.252 76.938,4.721 C78.433,6.303 79.467,7.752 80.614,9.555 C81.457,10.879 82.767,11.931 83.646,13.206 C85.323,15.639 86.44,18.183 86.433,21.171 C86.426,24.365 86.58,27.595 86.439,30.785 C86.373,32.283 86.131,33.588 85.623,35.004 C85.256,36.027 85.132,37.186 84.734,38.127 C82.384,35.974 81.713,32.449 79.367,30.196 C77.428,28.333 75.797,25.965 73.586,24.384" id="Shape" fill="#FF7455" fill-rule="nonzero"></path>
                <g id="Group" transform="translate(34.000000, 1.000000)" stroke="#444445" stroke-linecap="round" stroke-linejoin="round">
                    <path d="M5.301,44.261 C4.794,43.194 4.611,41.914 4.164,40.784 C3.63,39.436 2.986,38.154 2.429,36.854 C1.32,34.262 1.303,30.958 1.303,28.131 C1.303,25.245 1.146,22.282 1.441,19.438 C1.771,16.256 4.024,13.614 6.128,11.339 C8.604,8.663 11.611,6.268 14.4,3.867 C17.253,1.41 21.403,1.164 24.981,0.826 C28.214,0.521 31.763,-0.024 34.972,0.734 C38.758,1.628 41.193,2.807 43.657,5.682 C47.613,10.298 52.857,15.107 53.418,21.475 C53.661,24.23 53.663,27.182 53.691,29.895 C53.705,31.345 53.726,32.82 53.422,34.21 C53.126,35.563 52.43,36.65 52.312,38.025 C52.264,38.584 52.279,39.156 52.464,39.668 C51.676,38.168 51.524,36.445 50.734,34.961 C49.929,33.448 48.527,32.254 47.487,30.894 C45.445,28.221 42.899,26.038 40.903,23.412 C38.091,19.712 29.771,20.611 25.704,21.405 C22.958,21.941 19.987,21.7 17.294,22.581 C15.818,23.064 14.58,24.007 13.158,24.583 C12.077,25.021 10.312,24.863 9.429,25.678 C8.912,26.155 9.14,26.291 8.885,26.889 C8.566,27.634 8.398,27.8 7.917,28.44 C7.417,29.105 7.446,28.644 7.338,29.539 C7.261,30.175 7.6,30.837 7.752,31.435 C8.486,34.32 7.804,36.52 6.955,39.293 C6.462,40.902 6.232,44.04 5.025,45.086" id="Shape"></path>
                    <path d="M9.712,43.71 C10.664,41.763 13.981,40.232 16.061,40.256 C16.775,40.264 22.812,40.996 21.854,38.878 C21.198,37.428 16.133,38.322 15.089,38.847 C13.441,39.676 10.991,40.909 9.988,42.469 C9.701,42.915 9.546,43.466 9.437,43.985" id="Shape"></path>
                    <path d="M45.832,35.576 C44.735,35.78 43.701,34.936 42.664,34.746 C41.605,34.551 40.284,34.327 39.214,34.328 C36.87,34.331 34.837,35.401 32.838,36.507 C31.924,37.013 30.741,37.733 32.32,38.336 C33.362,38.734 34.732,37.837 35.622,37.472 C37.824,36.567 39.749,35.968 42.109,35.852 C43.669,35.776 45.149,36.306 46.658,36.128" id="Shape"></path>
                    <path d="M24.739,41.642 C26.266,42.541 25.807,46.639 25.459,48.122 C24.962,50.241 23.468,51.671 22.774,53.629 C22.259,55.083 22.857,55.283 24.325,55.569 C25.618,55.821 26.036,55.812 27.109,56.635 C27.944,57.275 28.982,57.97 30.088,57.323 C31.028,56.773 31.076,55.63 32.18,55.152 C33.35,54.645 34.829,54.883 35.774,53.773 C37.01,52.322 36.659,49.906 34.389,50.189" id="Shape"></path>
                    <path d="M5.852,46.743 C5.768,47.772 6.722,48.791 6.993,49.776 C7.292,50.864 7.647,51.988 7.751,53.085 C7.967,55.371 7.505,57.771 8.057,59.978 C8.603,62.16 9.487,64.363 10.535,66.35 C11.733,68.621 13.09,71.305 14.809,73.22 C16.455,75.054 18.529,76.73 20.327,78.479 C22.108,80.212 24.192,81.28 26.531,82.036 C31.012,83.485 36.423,82.22 40.593,80.24 C43.07,79.064 45.008,76.763 46.834,74.756 C47.718,73.784 50.364,70.305 51.088,69.214 C53.87,65.023 54.528,54.381 54.516,53.773" id="Shape"></path>
                    <path d="M11.918,58.047 C14.484,59.298 15.753,63.522 17.015,65.909 C18.784,69.252 20.668,72.52 22.809,75.694" id="Shape"></path>
                    <path d="M42.661,54.049 C43.439,55.161 44.412,55.231 44.698,56.669 C44.968,58.022 44.928,61.049 44.453,62.321" id="Shape"></path>
                    <path d="M45.005,69.214 C45.699,66.639 46.156,63.948 46.801,61.355 C47.257,59.523 47.943,57.155 47.349,55.29" id="Shape"></path>
                    <path d="M53.828,33.508 C55.654,31.986 57.296,31.781 57.857,34.749 C58.276,36.97 58.237,39.334 58.24,41.642 C58.243,43.979 57.669,46.113 57.443,48.397 C57.266,50.183 56.981,53.679 54.517,53.773 C53.968,53.794 53.465,53.492 53.001,53.222" id="Shape"></path>
                    <path d="M53.001,42.055 C52.568,43.301 53.465,43.66 53.662,44.705 C53.91,46.02 52.758,47.03 52.863,48.397" id="Shape"></path>
                    <path d="M3.095,41.09 C-1.655,39.604 1.196,48.307 2.265,50.051 C3.298,51.738 4.022,53.58 4.608,55.435 C5.033,56.78 5.818,60.27 8.059,59.012" id="Shape"></path>
                    <path d="M2.268,44.675 C2.411,45.946 3.27,46.895 3.371,48.122" id="Shape"></path>
                    <path d="M41.972,58.461 C38.782,59.536 34.689,60.728 31.36,61.084 C29.529,61.279 27.84,61.316 26.125,61.77 C24.727,62.14 22.621,62.102 21.693,63.425 C22.19,64.549 25.627,65.464 26.807,65.761 C29.022,66.318 31.057,65.905 33.142,65.351 C35.132,64.822 36.841,64.384 38.495,62.981 C39.277,62.318 41.651,59.932 41.421,59.151" id="Shape"></path>
                    <path d="M16.054,76.107 C16.074,79.973 18.524,84.454 16.881,88.239" id="Shape"></path>
                    <path d="M52.312,70.041 C53.93,70.824 54.507,75.144 55.069,76.766 C55.898,79.157 56.711,83.098 58.653,84.793" id="Shape"></path>
                </g>
                <path d="M51.846,89.102 C47.968,87.78 52.39,82.213 48.536,81.245 C46.16,80.648 42.316,84.786 40.356,85.895 C33.683,89.671 25.626,91.119 19.174,95.408 C10.93,100.889 6.407,112.943 3.539,122.187 C2.439,125.733 -0.186,133.174 0.271,136.979 L149.801,139.422 C151.632,132.912 147.634,127.907 146.032,121.568 C144.257,114.541 143.473,107.719 137.894,102.327 C131.567,96.212 121.962,92.752 114.713,87.851 C108.092,83.375 100.112,82.471 93.29,78.806 C93.091,81.771 94.143,86.29 93.225,89.102 C91.843,93.333 86.249,95.961 82.149,96.568 C77.453,97.263 71.605,96.755 66.839,96.547 C61.993,96.335 57.997,94.224 53.501,93.652" id="Shape" fill="#F9F9F9" fill-rule="nonzero"></path>
            </g>
        </g>
    </g>
</svg>